<svg width="29" height="31" viewBox="0 0 29 31" fill="none" xmlns="http://www.w3.org/2000/svg">
<path d="M16.0145 15.415L20.4106 21.581H16.6425L14.1304 18.0571L11.6183 21.581H7.85022L12.2463 15.415L7.85022 9.249H11.6183L14.1304 12.7729L16.6425 9.249H18.8405V3.083H3.14009V27.747H25.1207V9.249H20.4106L16.0145 15.415ZM0 1.52917C0 0.684426 0.70181 0 1.56847 0H20.4106L28.2608 7.7075V29.2777C28.2622 29.4801 28.2231 29.6809 28.1455 29.8684C28.0679 30.056 27.9535 30.2267 27.8087 30.3709C27.6639 30.515 27.4917 30.6298 27.3017 30.7085C27.1118 30.7873 26.9079 30.8286 26.7017 30.83H1.55905C1.14673 30.8272 0.752078 30.6652 0.460365 30.3791C0.168651 30.093 0.00328869 29.7057 0 29.3008V1.52917Z" fill="black"/>
</svg>
