<svg xmlns="http://www.w3.org/2000/svg" xmlns:xlink="http://www.w3.org/1999/xlink" viewBox="0 0 342.02 272.66"><defs><style>.cls-1{fill:url(#radial-gradient);}.cls-2{fill:url(#radial-gradient-2);}.cls-3{fill:url(#radial-gradient-3);}.cls-4{fill:url(#radial-gradient-4);}.cls-5{fill:url(#radial-gradient-5);}</style><radialGradient id="radial-gradient" cx="105.14" cy="136.33" r="121.74" gradientUnits="userSpaceOnUse"><stop offset="0" stop-color="#4bb649"/><stop offset="0.2" stop-color="#46ad45"/><stop offset="0.54" stop-color="#379539"/><stop offset="0.96" stop-color="#1f6d27"/><stop offset="1" stop-color="#1c6925"/></radialGradient><radialGradient id="radial-gradient-2" cx="264.54" cy="129.58" r="94.85" xlink:href="#radial-gradient"/><radialGradient id="radial-gradient-3" cx="178.33" cy="83.97" r="19.42" xlink:href="#radial-gradient"/><radialGradient id="radial-gradient-4" cx="223.05" cy="129.58" r="53.49" xlink:href="#radial-gradient"/><radialGradient id="radial-gradient-5" cx="131.8" cy="133.47" r="73.34" xlink:href="#radial-gradient"/></defs><g id="Layer_2" data-name="Layer 2"><g id="Layer_2-2" data-name="Layer 2"><path class="cls-1" d="M170.77,23.23S57.15-47.9,7.27,58.79C-15,106.49,17.13,159,61.11,191.16c34.31,25.07,88.9,63.71,149.16,81.5,0,0-188.82-116.56-151.63-205.48C66.91,47.4,96.67,2,170.77,23.23Z"/><path class="cls-2" d="M201.88,39.52S329.31-27.15,341.66,86.44c6.87,63.24-86.44,124-154.6,152.64,0,0,114.52-86.69,114.59-145.23C301.68,65.45,272.46,20.13,201.88,39.52Z"/><path class="cls-3" d="M197.74,84a19.41,19.41,0,1,1-19.41-19.42A19.41,19.41,0,0,1,197.74,84Z"/><path class="cls-4" d="M240.36,60.35a.9.9,0,0,0-1.53.48c-4.52,26.61-32.06,49-39.55,65.49-11.07,24.35-5.59,53,5.82,71.94.4.65,1.58,1.23,1.37.5-5.82-20.06-4.52-66.67,27.18-94.17-16.09,19-30.08,51.45-24.26,92.55.11.8,1.08.75,1.19,0,5.62-35.3,38.93-53.34,42.16-86.36,1.26-12.7-7.59-44-12.38-50.38Z"/><path class="cls-5" d="M139,107.12c-17.85-7-54.12-19.06-47.65-63.16.09-.64-.54-.19-.89.39-15.21,25.56-11.42,58-4.21,75.39,6.44,15.57,25.24,41.43,50.16,45,18.44,2.64,35.68,18.44,18.77,58.58,8.23-4.62,14.15-39.86,10.68-51.78-7.44-25.56-47.24-24.92-60.18-51.13-.29-.59-2.24-5.83-1.82-5.33,25.89,31.4,56.18,26.69,65.89,52.26,7.4,19.51-5.21,47.13-2.33,47.24,2.66.1,16.16-31,16.24-42.39.17-23.3-14.89-53.4-44.66-65Z"/></g></g></svg>