<svg width="37" height="37" viewBox="0 0 37 37" fill="none" xmlns="http://www.w3.org/2000/svg">
<g clip-path="url(#clip0_20_902)">
<path d="M29.2915 21.5834V9.25002C29.2915 7.55419 27.904 6.16669 26.2082 6.16669H4.62484C2.929 6.16669 1.5415 7.55419 1.5415 9.25002V21.5834C1.5415 23.2792 2.929 24.6667 4.62484 24.6667H26.2082C27.904 24.6667 29.2915 23.2792 29.2915 21.5834ZM26.2082 21.5834H4.62484V9.25002H26.2082V21.5834ZM15.4165 10.7917C12.8573 10.7917 10.7915 12.8575 10.7915 15.4167C10.7915 17.9759 12.8573 20.0417 15.4165 20.0417C17.9757 20.0417 20.0415 17.9759 20.0415 15.4167C20.0415 12.8575 17.9757 10.7917 15.4165 10.7917ZM35.4582 10.7917V27.75C35.4582 29.4459 34.0707 30.8334 32.3748 30.8334H6.1665C6.1665 29.2917 6.1665 29.4459 6.1665 27.75H32.3748V10.7917C34.0707 10.7917 33.9165 10.7917 35.4582 10.7917Z" fill="#FED600"/>
</g>
<defs>
<clipPath id="clip0_20_902">
<rect width="37" height="37" fill="white"/>
</clipPath>
</defs>
</svg>
